<svg width="123" height="247" viewBox="0 0 123 247" fill="none" xmlns="http://www.w3.org/2000/svg">
<g filter="url(#filter0_d_28_427)">
<rect x="10" y="6" width="96" height="227" rx="12" fill="#ECFDF5"/>
</g>
<path d="M121.414 134.586L111.868 125.04C111.087 124.259 109.821 124.259 109.04 125.04C108.259 125.821 108.259 127.087 109.04 127.868L115.172 134H94C92.8954 134 92 134.895 92 136C92 137.105 92.8954 138 94 138H115.172L109.04 144.132C108.259 144.913 108.259 146.179 109.04 146.96C109.821 147.741 111.087 147.741 111.868 146.96L121.414 137.414C122.195 136.633 122.195 135.367 121.414 134.586Z" fill="#A5B4FC" stroke="white"/>
<g filter="url(#filter1_d_28_427)">
<circle cx="56.4546" cy="136.455" r="33.4546" fill="url(#paint0_linear_28_427)"/>
</g>
<g clip-path="url(#clip0_28_427)">
<path d="M56.4547 120.487C53.1524 120.487 50.4731 123.169 50.4731 126.475V136.455C50.4731 139.76 53.1524 142.443 56.4547 142.443C59.757 142.443 62.4362 139.76 62.4362 136.455V126.475C62.4362 123.169 59.757 120.487 56.4547 120.487ZM48.4793 133.96C48.4793 133.13 47.8126 132.463 46.9839 132.463C46.1552 132.463 45.4885 133.13 45.4885 133.96V136.455C45.4885 142.012 49.6133 146.603 54.9593 147.333V149.429H51.9685C51.1398 149.429 50.4731 150.096 50.4731 150.926C50.4731 151.755 51.1398 152.423 51.9685 152.423H56.4547H60.9408C61.7695 152.423 62.4362 151.755 62.4362 150.926C62.4362 150.096 61.7695 149.429 60.9408 149.429H57.95V147.333C63.296 146.603 67.4208 142.012 67.4208 136.455V133.96C67.4208 133.13 66.7541 132.463 65.9254 132.463C65.0967 132.463 64.43 133.13 64.43 133.96V136.455C64.43 140.865 60.8598 144.439 56.4547 144.439C52.0495 144.439 48.4793 140.865 48.4793 136.455V133.96Z" fill="white"/>
</g>
<defs>
<filter id="filter0_d_28_427" x="0" y="0" width="116" height="247" filterUnits="userSpaceOnUse" color-interpolation-filters="sRGB">
<feFlood flood-opacity="0" result="BackgroundImageFix"/>
<feColorMatrix in="SourceAlpha" type="matrix" values="0 0 0 0 0 0 0 0 0 0 0 0 0 0 0 0 0 0 127 0" result="hardAlpha"/>
<feOffset dy="4"/>
<feGaussianBlur stdDeviation="5"/>
<feComposite in2="hardAlpha" operator="out"/>
<feColorMatrix type="matrix" values="0 0 0 0 0 0 0 0 0 0 0 0 0 0 0 0 0 0 0.25 0"/>
<feBlend mode="normal" in2="BackgroundImageFix" result="effect1_dropShadow_28_427"/>
<feBlend mode="normal" in="SourceGraphic" in2="effect1_dropShadow_28_427" result="shape"/>
</filter>
<filter id="filter1_d_28_427" x="8.1" y="91.1" width="94.7092" height="94.7092" filterUnits="userSpaceOnUse" color-interpolation-filters="sRGB">
<feFlood flood-opacity="0" result="BackgroundImageFix"/>
<feColorMatrix in="SourceAlpha" type="matrix" values="0 0 0 0 0 0 0 0 0 0 0 0 0 0 0 0 0 0 127 0" result="hardAlpha"/>
<feOffset dx="-1" dy="2"/>
<feGaussianBlur stdDeviation="6.95"/>
<feComposite in2="hardAlpha" operator="out"/>
<feColorMatrix type="matrix" values="0 0 0 0 0 0 0 0 0 0 0 0 0 0 0 0 0 0 0.25 0"/>
<feBlend mode="normal" in2="BackgroundImageFix" result="effect1_dropShadow_28_427"/>
<feBlend mode="normal" in="SourceGraphic" in2="effect1_dropShadow_28_427" result="shape"/>
</filter>
<linearGradient id="paint0_linear_28_427" x1="75.0758" y1="153.047" x2="33.2032" y2="115.544" gradientUnits="userSpaceOnUse">
<stop stop-color="#4338CA"/>
<stop offset="1" stop-color="#6366F1"/>
</linearGradient>
<clipPath id="clip0_28_427">
<rect width="23.9261" height="31.9362" fill="white" transform="translate(44.4916 120.487)"/>
</clipPath>
</defs>
</svg>
