<svg width="128" height="247" viewBox="0 0 128 247" fill="none" xmlns="http://www.w3.org/2000/svg">
<g filter="url(#filter0_d_28_425)">
<rect x="10" y="6" width="93" height="227" rx="12" fill="#FFFBEB"/>
</g>
<path d="M126.414 134.586L116.868 125.04C116.087 124.259 114.821 124.259 114.04 125.04C113.259 125.821 113.259 127.087 114.04 127.868L120.172 134H100C98.8954 134 98 134.895 98 136C98 137.105 98.8954 138 100 138H120.172L114.04 144.132C113.259 144.913 113.259 146.179 114.04 146.96C114.821 147.741 116.087 147.741 116.868 146.96L126.414 137.414C127.195 136.633 127.195 135.367 126.414 134.586Z" fill="#A5B4FC" stroke="white"/>
<g filter="url(#filter1_d_28_425)">
<circle cx="56.5" cy="136.5" r="32.5" fill="url(#paint0_linear_28_425)"/>
</g>
<path d="M47.0679 130.564C47.0679 128.633 48.6332 127.068 50.5642 127.068H62.3477C64.2786 127.068 65.844 128.633 65.844 130.564V142.348C65.844 144.279 64.2787 145.844 62.3477 145.844H50.5642C48.6332 145.844 47.0679 144.279 47.0679 142.348V130.564Z" fill="white"/>
<defs>
<filter id="filter0_d_28_425" x="0" y="0" width="113" height="247" filterUnits="userSpaceOnUse" color-interpolation-filters="sRGB">
<feFlood flood-opacity="0" result="BackgroundImageFix"/>
<feColorMatrix in="SourceAlpha" type="matrix" values="0 0 0 0 0 0 0 0 0 0 0 0 0 0 0 0 0 0 127 0" result="hardAlpha"/>
<feOffset dy="4"/>
<feGaussianBlur stdDeviation="5"/>
<feComposite in2="hardAlpha" operator="out"/>
<feColorMatrix type="matrix" values="0 0 0 0 0 0 0 0 0 0 0 0 0 0 0 0 0 0 0.25 0"/>
<feBlend mode="normal" in2="BackgroundImageFix" result="effect1_dropShadow_28_425"/>
<feBlend mode="normal" in="SourceGraphic" in2="effect1_dropShadow_28_425" result="shape"/>
</filter>
<filter id="filter1_d_28_425" x="9" y="92" width="93" height="93" filterUnits="userSpaceOnUse" color-interpolation-filters="sRGB">
<feFlood flood-opacity="0" result="BackgroundImageFix"/>
<feColorMatrix in="SourceAlpha" type="matrix" values="0 0 0 0 0 0 0 0 0 0 0 0 0 0 0 0 0 0 127 0" result="hardAlpha"/>
<feOffset dx="-1" dy="2"/>
<feGaussianBlur stdDeviation="7"/>
<feComposite in2="hardAlpha" operator="out"/>
<feColorMatrix type="matrix" values="0 0 0 0 0 0 0 0 0 0 0 0 0 0 0 0 0 0 0.25 0"/>
<feBlend mode="normal" in2="BackgroundImageFix" result="effect1_dropShadow_28_425"/>
<feBlend mode="normal" in="SourceGraphic" in2="effect1_dropShadow_28_425" result="shape"/>
</filter>
<linearGradient id="paint0_linear_28_425" x1="74.5898" y1="152.619" x2="33.912" y2="116.186" gradientUnits="userSpaceOnUse">
<stop stop-color="#4338CA"/>
<stop offset="1" stop-color="#6366F1"/>
</linearGradient>
</defs>
</svg>
